<svg xmlns="http://www.w3.org/2000/svg" width="60" height="40" viewBox="0 0 71 69" fill="none">
                        <path d="M29.5815 4.90903L23.5633 9.25878V35.2938L23.53 61.3288L29.5483 64.9165L35.5333 68.4725L41.485 64.9165L47.47 61.3288V47.2635V33.23H41.485H35.5V36.0875V38.9133L38.426 39.0085L41.3188 39.1038L41.4185 48.3748L41.485 57.6775L38.6255 59.4238C37.0295 60.408 35.5333 61.1383 35.3005 61.043C35.0345 60.9478 33.638 60.1223 32.175 59.2333L29.515 57.614V35.008V12.4338L32.441 10.2748C34.0703 9.10003 35.5 8.14753 35.633 8.14753C35.766 8.14753 37.1293 9.10003 38.692 10.243L41.485 12.3385V16.9105V21.4825H44.4775H47.47V15.3548V9.22703L45.2423 7.63953C43.9788 6.75053 41.3188 4.78203 39.2905 3.28978L35.5998 0.591032L29.5815 4.90903Z" fill="white"/>
                        <path d="M52.0253 35.8335C52.0918 48.7875 52.1583 59.519 52.1916 59.646C52.2581 59.773 56.4143 57.0425 61.4351 53.6135L70.5788 47.3588L70.6786 40.596L70.7451 33.865H65.7576H60.7701V36.7225V39.5483L62.6986 39.6435L64.5938 39.7388L64.6936 41.485L64.7933 43.263L61.9338 45.2315C60.3711 46.3428 58.8416 47.327 58.5756 47.4223C58.1766 47.5493 58.1101 45.9935 58.1101 36.1193C58.1101 29.7693 58.2431 24.6575 58.4093 24.6575C58.5756 24.6575 60.0718 25.5465 61.7343 26.626L64.7601 28.5945V30.2773V31.96H67.7526H70.7451V28.531L70.7118 25.1338L66.6553 22.2763C64.4276 20.7205 60.3046 17.8313 57.5116 15.8628C54.6853 13.8943 52.2913 12.275 52.1916 12.275C52.0586 12.275 51.9921 22.8795 52.0253 35.8335Z" fill="white"/>
                        <path d="M10.895 18.6568C6.60576 21.8318 2.44951 24.848 1.68476 25.4195L0.288255 26.4038L0.255005 36.8178V47.2L3.08126 48.9463C4.64401 49.8988 5.97401 50.6925 6.07376 50.6925C6.14026 50.6925 6.27326 48.216 6.30651 45.1998L6.40626 39.7388L12.8235 39.6435L19.2075 39.58V26.245C19.2075 18.9108 19.1078 12.91 18.9748 12.91C18.8085 12.91 15.1843 15.5135 10.895 18.6568ZM12.89 28.9438V32.9125H9.56501H6.24001V31.198V29.5153L9.29901 27.2293C10.9615 25.991 12.4578 24.975 12.624 24.975C12.757 24.975 12.89 26.753 12.89 28.9438Z" fill="white"/>
</svg>